<?xml version="1.0" encoding="utf-8"?>
<!-- Generator: Adobe Illustrator 21.0.0, SVG Export Plug-In . SVG Version: 6.00 Build 0)  -->
<svg version="1.1" id="Layer_1" xmlns="http://www.w3.org/2000/svg" xmlns:xlink="http://www.w3.org/1999/xlink" x="0px" y="0px"
	 viewBox="0 0 165.1 43.8" style="enable-background:new 0 0 165.1 43.8;" xml:space="preserve">
<style type="text/css">
	.st0{fill:#51A8B1;}
	.st1{fill:#7A7A7A;}
</style>
<g>
	<path class="st0" d="M81.6,8.1h-5.7H75v6.5c0,0.1,0,0.2,0,0.3c-0.1,2.9-2.6,5.3-5.6,5.3c-3.1,0-5.6-2.5-5.6-5.6S66.3,9,69.4,9h1.2
		h0.3h0.9V8.1h-2.4c-3.6,0-6.5,2.9-6.5,6.5s2.9,6.5,6.5,6.5c2.8,0,5.1-1.7,6.1-4.1c1,2.4,3.3,4.1,6.1,4.1c3.6,0,6.5-2.9,6.5-6.5
		S85.2,8.1,81.6,8.1z M81.6,20.1c-3,0.1-5.4-2.3-5.6-5.3c0-0.1,0-0.2,0-0.3V8.9h5.6c3.1,0,5.6,2.5,5.6,5.6S84.7,20.1,81.6,20.1z"/>
	<path class="st0" d="M96.2,8.1h-4.1V9v4.1H93V9h3.2c3.1,0,5.6,2.5,5.6,5.6s-2.5,5.6-5.6,5.6s-5.6-2.5-5.6-5.6V8.1h-0.9v6.5
		c0,3.6,2.9,6.5,6.5,6.5s6.5-2.9,6.5-6.5S99.8,8.1,96.2,8.1z"/>
</g>
<path class="st0" d="M40.1,19.2c1.9-0.9,3.2-2.8,3.2-5.1c0-3.1-2.5-5.6-5.6-5.6h-0.8v5.6C36.9,16.4,38.2,18.3,40.1,19.2 M41,8.5
	c1.9,1.1,3.2,3.2,3.2,5.6c0,2.3-1.2,4.3-3,5.5c0.4,0.1,0.8,0.1,1.3,0.1c3.1,0,5.6-2.5,5.6-5.6s-2.5-5.6-5.6-5.6H41z M15.8,21.6
	c0.8,0,1.5,0.7,1.5,1.5s-0.7,1.5-1.5,1.5c-0.8,0-1.5-0.7-1.5-1.5C14.3,22.2,15,21.6,15.8,21.6z M15.8,7.6c3.6,0,6.5,2.9,6.5,6.5
	s-2.9,6.5-6.5,6.5c-2.8,0-5.1-1.7-6.1-4.1c-1,2.4-3.3,4.1-6.1,4.1v-0.9c3.1,0,5.6-2.5,5.6-5.6V7.6h0.9v6.5c0,3.1,2.5,5.6,5.6,5.6
	s5.6-2.5,5.6-5.6s-2.5-5.6-5.6-5.6h-3.2v4.1h-0.9V8.5V7.6H15.8z M54.7,7.6c3.6,0,6.5,2.9,6.5,6.5s-2.9,6.5-6.5,6.5
	c-2.8,0-5.1-1.7-6.1-4.1c-1,2.4-3.3,4.1-6.1,4.1s-5.1-1.7-6.1-4.1c-1,2.4-3.3,4.1-6.1,4.1c-3.6,0-6.5-2.9-6.5-6.5V7.6h0.9v6.5
	c0,3.1,2.5,5.6,5.6,5.6s5.6-2.5,5.6-5.6l0,0V7.6h0.9h0.8h4.9c2.4,0,4.5,1.3,5.6,3.2V7.6H49v6.5l0,0c0,3.1,2.5,5.6,5.6,5.6
	s5.6-2.5,5.6-5.6s-2.5-5.6-5.6-5.6H49V7.6H54.7z"/>
<path class="st1" d="M36,36.4h0.5v-7.8H36V36.4z M28.2,32.5v3.9h-0.5v-3.9c0-1.8-1.5-3.3-3.3-3.3s-3.3,1.5-3.3,3.3v3.9h-0.5v-3.9
	c0-2.1,1.7-3.9,3.9-3.9c1.6,0,3,1,3.6,2.5c0.6-1.4,2-2.5,3.6-2.5c2.1,0,3.9,1.7,3.9,3.9v3.9h-0.5v-3.9l0,0c0-1.8-1.5-3.3-3.3-3.3
	C29.7,29.1,28.2,30.6,28.2,32.5z M19.8,32.5v3.9h-0.5v-3.9c0-1.8-1.5-3.3-3.3-3.3s-3.3,1.5-3.3,3.3v3.9H12v-3.9
	c0-2.1,1.7-3.9,3.9-3.9S19.8,30.3,19.8,32.5z M10.9,36.4h0.5v-3.6v-0.5v-3.7h-0.5v3.6H4.2v-3.6H3.7v7.7h0.5v-3.6h6.7V36.4z"/>
<g>
	<polygon class="st1" points="70.6,32.2 63.9,32.2 63.9,28.6 63.4,28.6 63.4,36.3 63.9,36.3 63.9,32.7 70.6,32.7 70.6,36.4 
		71.1,36.4 71.1,32.8 71.1,32.3 71.1,28.6 70.6,28.6 	"/>
	<path class="st1" d="M50.9,28.6c-1.6,0-3,1.1-3.6,2.5c-0.6-1.5-2-2.5-3.6-2.5c-2.2,0-3.9,1.8-3.9,3.9v3.9h0.5v-3.9
		c0-1.8,1.5-3.3,3.3-3.3s3.3,1.5,3.3,3.3v3.9h0.5v-3.9c0-1.9,1.5-3.4,3.6-3.3c1.8,0,3.3,1.5,3.3,3.3v3.9h0.5v-3.9
		C54.8,30.3,53,28.6,50.9,28.6z"/>
	<path class="st1" d="M59,28.6c-2.1,0-3.9,1.7-3.9,3.9s1.8,3.9,3.9,3.9c2.2,0,3.9-1.8,3.9-3.9C62.9,30.3,61.1,28.6,59,28.6z
		 M59,35.7c-1.8,0-3.3-1.5-3.3-3.3s1.5-3.3,3.3-3.3s3.3,1.5,3.3,3.3S60.8,35.7,59,35.7z"/>
	<path class="st1" d="M75.4,28.7c-2.1,0-3.8,1.6-3.8,3.8v3.9h0.5v-3.9c0-1.8,1.5-3.3,3.3-3.3s3.3,1.5,3.3,3.3v3.9h0.5v-3.9l0,0
		C79.2,30.4,77.6,28.7,75.4,28.7z"/>
	<polygon class="st1" points="95.9,29.2 95.9,28.6 88.2,28.6 88.2,36.3 88.7,36.3 95.9,36.3 95.9,35.8 88.7,35.8 88.7,32.7 
		95.9,32.7 95.9,32.3 88.7,32.3 88.7,29.2 	"/>
	<path class="st1" d="M87.2,32.5c0,1.8-1.5,3.3-3.3,3.3s-3.3-1.5-3.3-3.3h-0.5c0,2.1,1.7,3.9,3.9,3.9c1.9,0,3.7-1.8,3.7-3.9v-3.9
		h-0.5C87.2,28.6,87.2,32.5,87.2,32.5z"/>
</g>
<path class="st1" d="M104.2,32.4c0-1.1-0.4-2-1.1-2.7s-1.7-1.1-2.7-1.1h-2h-2v0.3v0.2v1.7v1.7v2v2h0.3H97v-1.7v-1.7h1.7h1.7
	c0.9,0,1.8,0.4,2.4,1s1,1.4,1,2.4h0.3h0.3c0-0.7-0.2-1.4-0.5-2s-0.8-1.1-1.4-1.4h0.9h0.8v-0.3L104.2,32.4z M97,32.3v-0.5v-0.5v-1.1
	V29h1.7h1.7c0.9,0,1.7,0.4,2.4,1c0.6,0.6,1,1.4,1,2.4H102h-1.7h-1.7H97V32.3z"/>
<path class="st0" d="M150.4,22h-22.8c-5.8,0-10.6,4.8-10.6,10.6v10.7h10.7c5.8,0,10.6-4.8,10.6-10.6v-6.2h-4.2v6.2
	c0,3.5-2.9,6.4-6.4,6.4h-6.5v-6.5c0-3.5,2.9-6.4,6.4-6.4h22.8V22z"/>
<path class="st0" d="M126.2,22H149c5.8,0,10.6,4.8,10.6,10.6v10.7h-10.7c-5.8,0-10.6-4.8-10.6-10.6v-6.2h4.2v6.2
	c0,3.5,2.9,6.4,6.4,6.4h6.5v-6.5c0-3.5-2.9-6.4-6.4-6.4h-22.8V22z"/>
<path class="st0" d="M153.4,27.2h-28.5c-7.3,0-13.3-6-13.3-13.3V0.6H125c7.3,0,13.3,6,13.3,13.3v6.9h-5.2v-6.9c0-4.4-3.6-8-8-8h-8.2
	V14c0,4.4,3.6,8,8,8h28.5L153.4,27.2L153.4,27.2z"/>
<path class="st0" d="M123.1,27.2h28.5c7.3,0,13.3-6,13.3-13.3V0.6h-13.4c-7.3,0-13.3,6-13.3,13.3v6.9h5.2v-6.9c0-4.4,3.6-8,8-8h8.2
	V14c0,4.4-3.6,8-8,8h-28.5C123.1,22,123.1,27.2,123.1,27.2z"/>
</svg>
